<svg version="1.0" xmlns="http://www.w3.org/2000/svg" width="800.000000" height="800.000000" viewBox="0 0 800.000000 800.000000" preserveAspectRatio="xMidYMid meet">
  <metadata>
    <rdf:RDF xmlns:rdf="http://www.w3.org/1999/02/22-rdf-syntax-ns#" xmlns:rdfs="http://www.w3.org/2000/01/rdf-schema#" xmlns:dc="http://purl.org/dc/elements/1.1/">
      <rdf:Description dc:format="image/svg+xml" dc:Label="1" dc:ContentProducer="001191330110MACRLGPT8B00000" dc:ProduceID="387827773" dc:ReservedCode1="OeJyaXIl8W/Ta/hdoLAYadk6x6hXCEBYtneO/QXFB4w=" dc:ContentPropagator="001191330110MACRLGPT8B00000" dc:PropagateID="387827773" dc:ReservedCode2="OeJyaXIl8W/Ta/hdoLAYadk6x6hXCEBYtneO/QXFB4w="/>
    </rdf:RDF>
  </metadata>
  <g transform="translate(-179.618486,981.144322) scale(0.145209,-0.145209)" fill="#000000" stroke="none">
    <path d="M3365 5420 c-341 -7 -368 -11 -504 -76 -101 -47 -195 -143 -245 -248 -72 -152 -70 -109 -70 -1106 -1 -948 -3 -914 46 -1040 71 -182 222 -309 425 -357 72 -17 139 -18 933 -17 920 1 955 2 1093 54 188 71 317 222 363 425 13 58 18 200 26 810 11 859 8 999 -22 1103 -65 231 -227 386 -461 442 -80 19 -114 20 -679 18 -327 -1 -734 -5 -905 -8z m1559 -120 c202 -51 337 -184 382 -376 14 -61 15 -163 11 -924 -3 -581 -9 -874 -16 -915 -29 -147 -116 -263 -245 -324 -144 -69 -95 -66 -1106 -66 l-915 0 -68 27 c-173 70 -268 192 -303 390 -15 83 -16 180 -10 918 4 657 9 838 20 890 43 199 154 312 366 372 46 13 562 24 1251 26 524 2 560 1 633 -18z"/>
    <path d="M2992 5209 c-27 -33 -49 -41 -73 -28 -34 18 -48 -5 -21 -34 l21 -23 -44 -54 c-24 -30 -49 -66 -55 -80 -9 -21 -17 -26 -34 -23 -30 6 -45 -16 -22 -33 15 -10 16 -20 9 -56 -8 -39 -11 -43 -41 -46 -25 -3 -32 -8 -30 -20 2 -9 13 -18 26 -20 21 -3 22 -8 22 -93 0 -81 2 -90 18 -87 14 3 18 17 22 83 6 92 12 105 46 105 33 0 29 34 -4 38 -17 3 -22 9 -20 24 4 31 20 32 60 4 23 -15 40 -21 49 -15 20 12 1 39 -44 65 -33 18 -35 22 -24 39 13 17 15 17 40 0 47 -30 67 9 21 42 l-25 19 31 42 c34 47 40 49 75 26 13 -9 29 -13 35 -9 18 11 11 32 -16 50 l-26 17 26 27 c29 30 34 61 11 61 -8 0 -23 -9 -33 -21z"/>
    <path d="M3844 5030 c-82 -11 -203 -53 -293 -101 -163 -87 -286 -217 -365 -382 -65 -136 -81 -214 -81 -387 0 -167 9 -208 74 -370 53 -133 56 -171 27 -321 -21 -109 -17 -141 21 -166 37 -25 83 -20 203 20 158 53 178 54 306 17 204 -60 421 -52 595 24 124 53 186 94 274 181 177 175 265 379 265 618 0 229 -78 421 -238 589 -212 222 -483 317 -788 278z m362 -135 c107 -36 177 -75 272 -151 96 -76 161 -159 214 -272 48 -102 68 -190 68 -307 0 -203 -80 -394 -226 -538 -108 -106 -250 -182 -390 -207 -111 -20 -270 -9 -374 26 -120 40 -211 38 -340 -6 -52 -18 -100 -36 -106 -41 -20 -17 -21 1 -2 99 28 140 21 187 -45 332 -81 177 -87 437 -15 620 79 199 246 357 455 431 158 56 348 61 489 14z"/>
    <path d="M3814 4860 c-22 -5 -70 -21 -105 -35 -248 -105 -424 -349 -437 -606 -6 -116 12 -204 64 -329 33 -78 37 -95 43 -218 6 -125 8 -135 30 -153 29 -24 38 -23 131 1 104 27 152 25 256 -12 79 -28 102 -31 204 -32 131 -1 186 12 317 75 286 137 438 500 343 814 -69 225 -282 425 -518 486 -79 20 -247 25 -328 9z m307 -116 c219 -65 386 -231 440 -436 68 -258 -60 -542 -294 -658 -158 -78 -283 -86 -455 -30 -115 38 -195 39 -298 6 -21 -6 -22 -3 -26 91 -3 70 -11 115 -28 158 -55 143 -72 202 -77 264 -22 269 169 535 437 605 76 20 233 20 301 0z"/>
    <path d="M3588 4545 c-9 -19 -7 -34 7 -72 17 -48 69 -113 89 -113 6 0 17 -4 24 -9 21 -13 -15 -78 -47 -86 -55 -14 -71 -32 -71 -84 0 -55 19 -79 71 -90 23 -5 35 -14 41 -33 8 -24 5 -31 -27 -59 -40 -35 -110 -163 -101 -185 15 -40 158 7 215 71 l33 38 42 -15 c32 -11 43 -22 52 -47 13 -40 29 -51 74 -51 48 0 76 22 84 65 9 47 40 49 43 3 4 -58 31 -73 139 -76 64 -3 99 0 109 8 11 9 15 34 15 87 0 65 -3 77 -24 98 -13 13 -40 27 -60 30 -20 4 -36 13 -36 20 0 16 47 55 65 55 29 0 46 37 43 91 -3 53 -4 54 -47 75 -65 31 -93 74 -48 74 47 0 94 20 105 46 13 27 16 104 6 141 -10 35 -42 39 -73 9 -19 -18 -38 -26 -62 -26 -19 0 -41 -6 -47 -12 -10 -10 -15 -10 -22 2 -5 8 -10 23 -10 33 0 9 -7 17 -15 17 -17 0 -35 -39 -35 -76 0 -40 -33 -26 -48 21 -16 48 -25 55 -77 55 -51 0 -61 -7 -77 -54 -10 -30 -21 -42 -51 -54 l-39 -15 -42 46 c-40 44 -132 97 -169 97 -9 0 -22 -11 -29 -25z m460 -210 c74 -32 112 -86 112 -163 0 -39 -6 -58 -31 -91 -33 -46 -95 -81 -144 -81 -65 0 -151 61 -174 123 -33 87 25 186 127 217 42 13 69 11 110 -5z m232 -424 c0 -16 -28 -20 -34 -5 -4 9 1 14 14 14 11 0 20 -4 20 -9z"/>
    <path d="M3867 4216 c-8 -20 17 -38 45 -34 37 5 31 42 -8 46 -21 2 -33 -2 -37 -12z"/>
    <path d="M4024 4215 c-9 -23 9 -37 42 -33 21 2 29 8 29 23 0 26 -62 35 -71 10z"/>
    <path d="M3895 4129 c-11 -16 24 -48 61 -55 23 -4 45 0 71 12 47 23 52 50 8 46 -65 -6 -81 -6 -107 1 -16 4 -29 3 -33 -4z"/>
    <path d="M5113 3224 c-3 -9 -1 -31 5 -48 16 -44 15 -54 -7 -82 l-19 -24 -22 35 c-39 63 -66 32 -29 -34 20 -37 21 -41 5 -56 -9 -9 -16 -22 -16 -28 0 -8 -4 -7 -12 1 -24 24 -41 14 -34 -19 4 -22 1 -38 -12 -54 l-19 -23 -17 29 c-31 53 -60 24 -31 -31 17 -32 16 -33 -8 -58 l-26 -25 -41 66 c-41 65 -70 85 -70 49 0 -10 23 -54 50 -97 51 -80 81 -101 88 -60 5 25 31 55 48 55 7 0 17 -8 23 -17 15 -28 37 -2 22 26 -21 39 17 79 47 49 21 -21 38 6 24 37 -9 19 -9 32 -2 46 14 25 20 24 46 -8 18 -22 25 -25 35 -16 9 9 7 20 -10 48 l-21 37 22 30 21 31 22 -27 c39 -49 60 -24 29 36 -15 28 -14 33 2 64 20 37 13 54 -16 36 -27 -16 -27 -16 -39 18 -11 33 -28 39 -38 14z"/>
    <path d="M3998 3089 c-48 -28 -42 -77 12 -99 16 -7 30 -19 30 -27 0 -11 -5 -13 -17 -8 -40 17 -63 17 -63 2 0 -23 29 -41 65 -41 45 0 67 20 63 58 -2 25 -11 35 -43 50 -21 11 -34 21 -27 24 19 6 62 -7 62 -19 0 -6 7 -17 15 -25 8 -9 15 -29 15 -45 0 -22 6 -32 23 -38 27 -10 47 -4 47 15 0 10 6 8 21 -7 17 -17 27 -20 57 -13 21 4 48 6 62 5 64 -5 114 -1 122 11 6 10 8 10 8 1 0 -15 36 -18 45 -4 3 6 17 4 33 -5 15 -7 35 -14 45 -14 26 0 67 45 67 73 0 55 -80 89 -122 50 -14 -13 -18 -13 -19 -2 -1 8 -2 23 -3 34 -1 13 -8 20 -23 20 -12 0 -25 4 -29 8 -4 4 -16 7 -26 7 -13 0 -18 -7 -18 -25 0 -21 -5 -25 -28 -25 -15 0 -33 -5 -40 -12 -8 -8 -15 -8 -26 1 -20 17 -36 6 -36 -24 0 -67 -36 -75 -46 -10 -6 41 -9 45 -34 45 -20 0 -31 6 -35 20 -8 26 -27 26 -43 -1 -13 -21 -13 -21 -37 5 -25 27 -49 32 -77 15z m465 -62 c-3 -5 -9 -3 -14 4 -4 7 -5 17 -2 22 3 5 9 3 14 -4 4 -7 5 -17 2 -22z m-283 -42 c0 -26 -14 -33 -25 -15 -9 14 1 40 15 40 5 0 10 -11 10 -25z m215 0 c0 -13 -8 -21 -22 -23 -17 -3 -23 2 -23 16 0 10 3 22 7 26 13 13 38 1 38 -19z m193 -3 c3 -17 -2 -22 -17 -22 -16 0 -21 6 -21 26 0 33 33 30 38 -4z"/>
    <path d="M3385 3068 c-15 -14 -28 -38 -32 -60 -5 -32 -1 -41 25 -68 34 -34 59 -37 102 -15 17 9 30 11 30 5 0 -5 9 -10 20 -10 15 0 21 9 26 40 8 48 27 48 34 -1 4 -30 9 -34 45 -41 22 -4 59 -5 83 -1 l42 5 2 47 c1 40 2 42 5 11 7 -59 54 -90 83 -56 9 12 7 17 -9 28 -24 15 -28 46 -6 54 8 4 15 15 15 25 0 10 -7 19 -15 19 -8 0 -15 6 -15 14 0 8 -4 17 -9 20 -14 9 -41 -4 -41 -19 0 -22 -29 -40 -42 -27 -16 16 -61 15 -76 0 -19 -19 -14 -28 16 -29 23 -2 24 -2 5 -6 -13 -2 -23 -9 -23 -14 0 -5 -4 -9 -10 -9 -5 0 -10 9 -10 19 0 30 -29 53 -56 47 -20 -5 -23 -3 -21 16 1 17 -4 24 -20 26 -16 2 -23 -2 -23 -12 0 -20 -7 -20 -26 -1 -22 22 -69 18 -99 -7z m76 -29 c15 -7 24 -7 35 2 12 10 14 4 14 -34 0 -35 -3 -45 -13 -41 -8 3 -25 1 -38 -5 -50 -18 -81 35 -43 73 18 19 20 19 45 5z m249 -73 c0 -3 -4 -8 -10 -11 -5 -3 -10 -1 -10 4 0 6 5 11 10 11 6 0 10 -2 10 -4z"/>
    <path d="M3862 2993 c2 -12 14 -19 37 -21 43 -4 62 4 55 23 -4 10 -20 15 -51 15 -37 0 -44 -3 -41 -17z"/>
  </g>
</svg>